{"title":"Bringing Up Bobby 2011 DVDrip English Klam","uid":7102530,"size":1744554465,"categoryP":"video","categoryS":"movies","magnet":"?xt=urn:btih:1d84cd9d828fef6131540d7973425041fbae41e2&amp;dn=Bringing+Up+Bobby+2011+DVDrip+English+Klam&amp;tr=udp%3A%2F%2Ftracker.openbittorrent.com%3A80&amp;tr=udp%3A%2F%2Fopen.demonii.com%3A1337&amp;tr=udp%3A%2F%2Ftracker.coppersurfer.tk%3A6969&amp;tr=udp%3A%2F%2Fexodus.desync.com%3A6969","seeders":1,"leechers":0,"uploader":"Klambake","files":-1,"time":1331742359,"description":"With: Milla Jovovich, Spencer List and Bill Pullman\n\nHet verhaal van de Europese oplichtster Olive en haar zoon Bobby, die proberen om in Oklahoma te ontsnappen aan hun verleden en te werken aan een betere toekomst. Olive en Bobby vallen onbekommerd van het ene in het andere avontuur, totdat Olive weer in aanraking komt met haar criminele verleden. Als gevolg zal ze een keuze moeten maken: verder gaan met haar criminele leven, of de persoon die ze lief heeft verlaten, in een poging Bobby een goede toekomst te geven.\n\nBringing Up Bobby is the story of a European con-artist and her son Bobby, who find themselves in Oklahoma in an effort to escape her past and build a better future...\n\n------------------------ Dutch Friends ------------------------\n---------------------------------------------------------------\n- Bezoek ook eens mijn vrienden op: &lt;a href=&quot; http://www.Film-Test.nl&quot; rel=&quot;nofollow&quot; target=&quot;_NEW&quot;&gt; http://www.Film-Test.nl&lt;/a&gt; --\n----- voor mijn Nederlandse Sync. ondertitels ---- en meer ----\n------- http://www.Film-Test.nl ---- voor Films en meer -------\n---------------------------------------------------------------\n\nGeneral:\n\nComplete name                    : Bringing Up BobbyBringing Up Bobby.avi\nFormat                           : AVI\nFormat/Info                      : Audio Video Interleave\nFile size                        : 1.62 GiB\nDuration                         : 1h 31mn\nOverall bit rate                 : 2 546 Kbps\n\nVideo:\n\nFormat                           : MPEG-4 Visual\nFormat profile                   : Simple@L3\nFormat settings, BVOP            : No\nFormat settings, QPel            : No\nFormat settings, GMC             : No warppoints\nFormat settings, Matrix          : Default (H.263)\nCodec ID                         : XVID\nCodec ID/Hint                    : XviD\nDuration                         : 1h 31mn\nBit rate                         : 2 087 Kbps\nWidth                            : 704 pixels\nHeight                           : 396 pixels\nDisplay aspect ratio             : 16:9\nFrame rate                       : 25.000 fps\nColor space                      : YUV\nChroma subsampling               : 4:2:0\nBit depth                        : 8 bits\nScan type                        : Progressive\nCompression mode                 : Lossy\nBits/(Pixel*Frame)               : 0.299\nStream size                      : 1.33 GiB (82%)\nWriting library                  : XviD 1.1.2 (UTC 2006-11-01)\n\nAudio:\n\nFormat                           : AC-3\nFormat/Info                      : Audio Coding 3\nMode extension                   : CM (complete main)\nCodec ID                         : 2000\nDuration                         : 1h 31mn\nBit rate mode                    : Constant\nBit rate                         : 448 Kbps\nChannel(s)                       : 5 channels\nChannel positions                : Front: L C R, Side: L R\nSampling rate                    : 48.0 KHz\nBit depth                        : 16 bits\nCompression mode                 : Lossy\nStream size                      : 292 MiB (18%)\nAlignment                        : Aligned on interleaves\nInterleave, duration             : 32 ms (0.80 video frame)\n","torrent":{"xt":"urn:btih:1d84cd9d828fef6131540d7973425041fbae41e2","amp;dn":"Bringing+Up+Bobby+2011+DVDrip+English+Klam","amp;tr":["udp%3A%2F%2Ftracker.openbittorrent.com%3A80","udp%3A%2F%2Fopen.demonii.com%3A1337","udp%3A%2F%2Ftracker.coppersurfer.tk%3A6969","udp%3A%2F%2Fexodus.desync.com%3A6969"],"infoHash":"1d84cd9d828fef6131540d7973425041fbae41e2","infoHashBuffer":{"type":"Buffer","data":[29,132,205,157,130,143,239,97,49,84,13,121,115,66,80,65,251,174,65,226]},"announce":[],"urlList":[]}}